# xmcd
#
# Track frame offsets:
#	150
#	19946
#	34188
#	57969
#	74369
#	92316
#	111132
#	127502
#	146881
#	166677
#	180909
#	204690
#	221090
#	239037
#	257853
#	274223
#
# Disc length: 3916 seconds
#
# Revision: 0
# Processed by: cddbd v1.5.2PL0 Copyright (c) Steve Scherf et al.
# Submitted via: audiograbber 1.83.01
#
DISCID=e70f4a10
DTITLE=Various Artist - Country Hits  hp-5-82
DYEAR=2005
DGENRE=Country
TTITLE0=Chesney, Kenny - I Go Back
TTITLE1=McBride, Martina - City of Love
TTITLE2=McGraw, Tim - Back When
TTITLE3=Wilson, Gretchen - Homewrecker
TTITLE4=Worley, Darryl - Awful Beautiful Life
TTITLE5=Twain, Shania - Don't
TTITLE6=Shelton, Blake - Goodbye
TTITLE7=Roberts, Julie - Break Down Here
TTITLE8=Chesney, Kenny - I Go Back 2
TTITLE9=McBride, Martina - City of Love
TTITLE10=Mcgraw, Tim - Back When
TTITLE11=Wilson, Gretchen - Homewrecker
TTITLE12=Worley, Darryl - Awful Beautiful Life
TTITLE13=Twain, Shania - Don't
TTITLE14=Shelton, Blake - Goodbye
TTITLE15=Roberts, Julie - Break Down Here
EXTD=Country Hits, Volume 4, Compass Productions
EXTT0=
EXTT1=
EXTT2=
EXTT3=
EXTT4=
EXTT5=
EXTT6=
EXTT7=
EXTT8=
EXTT9=
EXTT10=
EXTT11=
EXTT12=
EXTT13=
EXTT14=
EXTT15=
PLAYORDER=
